<mxfile host="app.diagrams.net" modified="2024-07-23T13:48:31.162Z" agent="Mozilla/5.0 (Windows NT 10.0; Win64; x64) AppleWebKit/537.36 (KHTML, like Gecko) Chrome/126.0.0.0 Safari/537.36" etag="S7llZJkf82Le8JcHQxqz" version="24.7.1" type="device">
  <diagram name="Page-1" id="Db7VH23ZAORHIhg4d7BZ">
    <mxGraphModel dx="1434" dy="719" grid="1" gridSize="10" guides="1" tooltips="1" connect="1" arrows="1" fold="1" page="1" pageScale="1" pageWidth="827" pageHeight="1169" math="0" shadow="0">
      <root>
        <mxCell id="0" />
        <mxCell id="1" parent="0" />
        <mxCell id="lzxHL98yrn8-DKB0zWzx-300" value="Hayvan Sahibi" style="whiteSpace=wrap;html=1;align=center;" parent="1" vertex="1">
          <mxGeometry x="2067.64" y="958.3600000000001" width="100" height="40" as="geometry" />
        </mxCell>
        <mxCell id="lzxHL98yrn8-DKB0zWzx-301" value="İlaçlar&lt;span style=&quot;color: rgba(0, 0, 0, 0); font-family: monospace; font-size: 0px; text-align: start; text-wrap: nowrap;&quot;&gt;%3CmxGraphModel%3E%3Croot%3E%3CmxCell%20id%3D%220%22%2F%3E%3CmxCell%20id%3D%221%22%20parent%3D%220%22%2F%3E%3CmxCell%20id%3D%222%22%20value%3D%22Oda%22%20style%3D%22whiteSpace%3Dwrap%3Bhtml%3D1%3Balign%3Dcenter%3B%22%20vertex%3D%221%22%20parent%3D%221%22%3E%3CmxGeometry%20x%3D%22410%22%20y%3D%22320%22%20width%3D%22100%22%20height%3D%2240%22%20as%3D%22geometry%22%2F%3E%3C%2FmxCell%3E%3C%2Froot%3E%3C%2FmxGraphModel%3E&lt;/span&gt;" style="whiteSpace=wrap;html=1;align=center;" parent="1" vertex="1">
          <mxGeometry x="750" y="1408.3600000000001" width="100" height="40" as="geometry" />
        </mxCell>
        <mxCell id="lzxHL98yrn8-DKB0zWzx-302" value="Veteriner" style="whiteSpace=wrap;html=1;align=center;" parent="1" vertex="1">
          <mxGeometry x="1307.41" y="1015" width="100" height="40" as="geometry" />
        </mxCell>
        <mxCell id="lzxHL98yrn8-DKB0zWzx-303" value="Randevu" style="whiteSpace=wrap;html=1;align=center;" parent="1" vertex="1">
          <mxGeometry x="1417.41" y="1610" width="100" height="40" as="geometry" />
        </mxCell>
        <mxCell id="lzxHL98yrn8-DKB0zWzx-304" value="Hasta Hayvan" style="shape=ext;margin=3;double=1;whiteSpace=wrap;html=1;align=center;" parent="1" vertex="1">
          <mxGeometry x="1615" y="1802.83" width="100" height="40" as="geometry" />
        </mxCell>
        <mxCell id="lzxHL98yrn8-DKB0zWzx-305" value="İsim" style="ellipse;whiteSpace=wrap;html=1;align=center;" parent="1" vertex="1">
          <mxGeometry x="2140" y="830" width="100" height="40" as="geometry" />
        </mxCell>
        <mxCell id="lzxHL98yrn8-DKB0zWzx-306" value="İsim" style="ellipse;whiteSpace=wrap;html=1;align=center;" parent="1" vertex="1">
          <mxGeometry x="1615" y="1928.2799999999997" width="100" height="40" as="geometry" />
        </mxCell>
        <mxCell id="lzxHL98yrn8-DKB0zWzx-307" value="Adres" style="ellipse;whiteSpace=wrap;html=1;align=center;" parent="1" vertex="1">
          <mxGeometry x="2270" y="890" width="100" height="40" as="geometry" />
        </mxCell>
        <mxCell id="lzxHL98yrn8-DKB0zWzx-308" value="İlçe" style="ellipse;whiteSpace=wrap;html=1;align=center;" parent="1" vertex="1">
          <mxGeometry x="2390" y="798" width="100" height="40" as="geometry" />
        </mxCell>
        <mxCell id="lzxHL98yrn8-DKB0zWzx-309" value="Mahalle" style="ellipse;whiteSpace=wrap;html=1;align=center;" parent="1" vertex="1">
          <mxGeometry x="2400" y="910" width="100" height="40" as="geometry" />
        </mxCell>
        <mxCell id="lzxHL98yrn8-DKB0zWzx-310" value="Gün" style="ellipse;whiteSpace=wrap;html=1;align=center;" parent="1" vertex="1">
          <mxGeometry x="1405" y="1705" width="100" height="40" as="geometry" />
        </mxCell>
        <mxCell id="lzxHL98yrn8-DKB0zWzx-311" value="Saat" style="ellipse;whiteSpace=wrap;html=1;align=center;" parent="1" vertex="1">
          <mxGeometry x="1515" y="1705" width="100" height="40" as="geometry" />
        </mxCell>
        <mxCell id="lzxHL98yrn8-DKB0zWzx-312" value="" style="endArrow=none;html=1;rounded=0;entryX=1;entryY=0.75;entryDx=0;entryDy=0;" parent="1" source="lzxHL98yrn8-DKB0zWzx-338" target="lzxHL98yrn8-DKB0zWzx-304" edge="1">
          <mxGeometry relative="1" as="geometry">
            <mxPoint x="1915" y="1712.83" as="sourcePoint" />
            <mxPoint x="2075" y="1712.83" as="targetPoint" />
          </mxGeometry>
        </mxCell>
        <mxCell id="lzxHL98yrn8-DKB0zWzx-313" value="" style="endArrow=none;html=1;rounded=0;exitX=0.5;exitY=1;exitDx=0;exitDy=0;" parent="1" source="lzxHL98yrn8-DKB0zWzx-304" target="lzxHL98yrn8-DKB0zWzx-306" edge="1">
          <mxGeometry relative="1" as="geometry">
            <mxPoint x="1925" y="1722.83" as="sourcePoint" />
            <mxPoint x="2085" y="1722.83" as="targetPoint" />
          </mxGeometry>
        </mxCell>
        <mxCell id="lzxHL98yrn8-DKB0zWzx-314" value="" style="endArrow=none;html=1;rounded=0;exitX=1;exitY=0;exitDx=0;exitDy=0;" parent="1" source="lzxHL98yrn8-DKB0zWzx-307" target="lzxHL98yrn8-DKB0zWzx-308" edge="1">
          <mxGeometry relative="1" as="geometry">
            <mxPoint x="1715" y="833.3600000000001" as="sourcePoint" />
            <mxPoint x="1875" y="833.3600000000001" as="targetPoint" />
          </mxGeometry>
        </mxCell>
        <mxCell id="lzxHL98yrn8-DKB0zWzx-315" value="" style="endArrow=none;html=1;rounded=0;" parent="1" source="lzxHL98yrn8-DKB0zWzx-307" target="lzxHL98yrn8-DKB0zWzx-309" edge="1">
          <mxGeometry relative="1" as="geometry">
            <mxPoint x="1611" y="967.3600000000001" as="sourcePoint" />
            <mxPoint x="1885" y="843.3600000000001" as="targetPoint" />
          </mxGeometry>
        </mxCell>
        <mxCell id="lzxHL98yrn8-DKB0zWzx-316" value="" style="endArrow=none;html=1;rounded=0;exitX=1;exitY=0.25;exitDx=0;exitDy=0;" parent="1" source="lzxHL98yrn8-DKB0zWzx-300" target="lzxHL98yrn8-DKB0zWzx-307" edge="1">
          <mxGeometry relative="1" as="geometry">
            <mxPoint x="1810" y="928.3600000000001" as="sourcePoint" />
            <mxPoint x="1970" y="928.3600000000001" as="targetPoint" />
          </mxGeometry>
        </mxCell>
        <mxCell id="lzxHL98yrn8-DKB0zWzx-317" value="" style="endArrow=none;html=1;rounded=0;shape=link;" parent="1" source="lzxHL98yrn8-DKB0zWzx-436" target="lzxHL98yrn8-DKB0zWzx-442" edge="1">
          <mxGeometry relative="1" as="geometry">
            <mxPoint x="949.7926857675288" y="1811.7200000000003" as="sourcePoint" />
            <mxPoint x="881.7138268506906" y="1680.64617314931" as="targetPoint" />
          </mxGeometry>
        </mxCell>
        <mxCell id="lzxHL98yrn8-DKB0zWzx-318" value="(1,N)" style="edgeLabel;html=1;align=center;verticalAlign=middle;resizable=0;points=[];" parent="lzxHL98yrn8-DKB0zWzx-317" vertex="1" connectable="0">
          <mxGeometry x="0.035" y="-3" relative="1" as="geometry">
            <mxPoint x="-2" y="-43" as="offset" />
          </mxGeometry>
        </mxCell>
        <mxCell id="lzxHL98yrn8-DKB0zWzx-319" value="" style="endArrow=none;html=1;rounded=0;entryX=0.5;entryY=1;entryDx=0;entryDy=0;" parent="1" source="lzxHL98yrn8-DKB0zWzx-310" target="lzxHL98yrn8-DKB0zWzx-303" edge="1">
          <mxGeometry relative="1" as="geometry">
            <mxPoint x="1267.4099999999999" y="1770" as="sourcePoint" />
            <mxPoint x="1427.41" y="1770" as="targetPoint" />
          </mxGeometry>
        </mxCell>
        <mxCell id="lzxHL98yrn8-DKB0zWzx-320" value="isim" style="ellipse;whiteSpace=wrap;html=1;align=center;" parent="1" vertex="1">
          <mxGeometry x="1280.0000000000005" y="910" width="100" height="40" as="geometry" />
        </mxCell>
        <mxCell id="lzxHL98yrn8-DKB0zWzx-321" value="" style="endArrow=none;html=1;rounded=0;exitX=0.25;exitY=0;exitDx=0;exitDy=0;" parent="1" source="lzxHL98yrn8-DKB0zWzx-302" target="lzxHL98yrn8-DKB0zWzx-320" edge="1">
          <mxGeometry relative="1" as="geometry">
            <mxPoint x="1467.4100000000003" y="977" as="sourcePoint" />
            <mxPoint x="1507.4100000000003" y="965" as="targetPoint" />
          </mxGeometry>
        </mxCell>
        <mxCell id="lzxHL98yrn8-DKB0zWzx-322" value="" style="endArrow=none;html=1;rounded=0;entryX=0.75;entryY=1;entryDx=0;entryDy=0;" parent="1" source="lzxHL98yrn8-DKB0zWzx-311" target="lzxHL98yrn8-DKB0zWzx-303" edge="1">
          <mxGeometry relative="1" as="geometry">
            <mxPoint x="1448.41" y="1691" as="sourcePoint" />
            <mxPoint x="1466.41" y="1660" as="targetPoint" />
          </mxGeometry>
        </mxCell>
        <mxCell id="lzxHL98yrn8-DKB0zWzx-323" value="" style="endArrow=none;html=1;rounded=0;exitX=0.75;exitY=0;exitDx=0;exitDy=0;" parent="1" source="lzxHL98yrn8-DKB0zWzx-300" target="lzxHL98yrn8-DKB0zWzx-305" edge="1">
          <mxGeometry relative="1" as="geometry">
            <mxPoint x="2207.64" y="1098.3600000000001" as="sourcePoint" />
            <mxPoint x="2367.64" y="1098.3600000000001" as="targetPoint" />
          </mxGeometry>
        </mxCell>
        <mxCell id="lzxHL98yrn8-DKB0zWzx-324" value="" style="endArrow=none;html=1;rounded=0;shape=link;entryX=0.5;entryY=1;entryDx=0;entryDy=0;exitX=0.5;exitY=0;exitDx=0;exitDy=0;" parent="1" source="lzxHL98yrn8-DKB0zWzx-326" target="lzxHL98yrn8-DKB0zWzx-300" edge="1">
          <mxGeometry relative="1" as="geometry">
            <mxPoint x="1615" y="2393.36" as="sourcePoint" />
            <mxPoint x="2603.8559999999998" y="1391.7199999999998" as="targetPoint" />
          </mxGeometry>
        </mxCell>
        <mxCell id="lzxHL98yrn8-DKB0zWzx-325" value="&lt;span style=&quot;font-size: 14px;&quot;&gt;(1, N)&lt;/span&gt;" style="edgeLabel;html=1;align=center;verticalAlign=middle;resizable=0;points=[];" parent="lzxHL98yrn8-DKB0zWzx-324" connectable="0" vertex="1">
          <mxGeometry x="-0.0725" y="-3" relative="1" as="geometry">
            <mxPoint x="-120" y="296" as="offset" />
          </mxGeometry>
        </mxCell>
        <mxCell id="lzxHL98yrn8-DKB0zWzx-326" value="Sahip" style="shape=rhombus;double=1;perimeter=rhombusPerimeter;whiteSpace=wrap;html=1;align=center;" parent="1" vertex="1">
          <mxGeometry x="1970" y="1530" width="120" height="60" as="geometry" />
        </mxCell>
        <mxCell id="lzxHL98yrn8-DKB0zWzx-327" value="&lt;span&gt;İlaçID&lt;/span&gt;" style="ellipse;whiteSpace=wrap;html=1;align=center;fontStyle=4" parent="1" vertex="1">
          <mxGeometry x="680" y="1306.3600000000001" width="100" height="40" as="geometry" />
        </mxCell>
        <mxCell id="lzxHL98yrn8-DKB0zWzx-328" value="" style="endArrow=none;html=1;rounded=0;" parent="1" source="lzxHL98yrn8-DKB0zWzx-301" target="lzxHL98yrn8-DKB0zWzx-327" edge="1">
          <mxGeometry relative="1" as="geometry">
            <mxPoint x="180" y="1398.3600000000001" as="sourcePoint" />
            <mxPoint x="340" y="1398.3600000000001" as="targetPoint" />
          </mxGeometry>
        </mxCell>
        <mxCell id="lzxHL98yrn8-DKB0zWzx-329" value="İsim" style="ellipse;whiteSpace=wrap;html=1;align=center;" parent="1" vertex="1">
          <mxGeometry x="890" y="1338.3600000000001" width="100" height="40" as="geometry" />
        </mxCell>
        <mxCell id="lzxHL98yrn8-DKB0zWzx-330" value="" style="endArrow=none;html=1;rounded=0;" parent="1" source="lzxHL98yrn8-DKB0zWzx-301" target="lzxHL98yrn8-DKB0zWzx-329" edge="1">
          <mxGeometry relative="1" as="geometry">
            <mxPoint x="180" y="1398.3600000000001" as="sourcePoint" />
            <mxPoint x="340" y="1398.3600000000001" as="targetPoint" />
          </mxGeometry>
        </mxCell>
        <mxCell id="lzxHL98yrn8-DKB0zWzx-331" value="" style="endArrow=none;html=1;rounded=0;" parent="1" source="lzxHL98yrn8-DKB0zWzx-332" target="lzxHL98yrn8-DKB0zWzx-301" edge="1">
          <mxGeometry relative="1" as="geometry">
            <mxPoint x="670" y="1388.3600000000001" as="sourcePoint" />
            <mxPoint x="350" y="1408.3600000000001" as="targetPoint" />
          </mxGeometry>
        </mxCell>
        <mxCell id="lzxHL98yrn8-DKB0zWzx-332" value="Fiyat" style="ellipse;whiteSpace=wrap;html=1;align=center;" parent="1" vertex="1">
          <mxGeometry x="600" y="1390" width="100" height="40" as="geometry" />
        </mxCell>
        <mxCell id="lzxHL98yrn8-DKB0zWzx-333" value="&lt;u&gt;RandevuID&lt;/u&gt;" style="ellipse;whiteSpace=wrap;html=1;align=center;" parent="1" vertex="1">
          <mxGeometry x="1265" y="1700" width="100" height="40" as="geometry" />
        </mxCell>
        <mxCell id="lzxHL98yrn8-DKB0zWzx-334" value="" style="endArrow=none;html=1;rounded=0;" parent="1" source="lzxHL98yrn8-DKB0zWzx-333" target="lzxHL98yrn8-DKB0zWzx-303" edge="1">
          <mxGeometry relative="1" as="geometry">
            <mxPoint x="1394.9967834719075" y="1673.3196192960568" as="sourcePoint" />
            <mxPoint x="1479.41" y="1660" as="targetPoint" />
          </mxGeometry>
        </mxCell>
        <mxCell id="lzxHL98yrn8-DKB0zWzx-335" value="" style="endArrow=none;html=1;rounded=0;exitX=0;exitY=0.25;exitDx=0;exitDy=0;entryX=1;entryY=1;entryDx=0;entryDy=0;" parent="1" source="lzxHL98yrn8-DKB0zWzx-436" target="lzxHL98yrn8-DKB0zWzx-437" edge="1">
          <mxGeometry relative="1" as="geometry">
            <mxPoint x="921.9047619047624" y="1811.7200000000003" as="sourcePoint" />
            <mxPoint x="791.01934460451" y="1742.4059185784172" as="targetPoint" />
          </mxGeometry>
        </mxCell>
        <mxCell id="lzxHL98yrn8-DKB0zWzx-336" value="Alır" style="shape=rhombus;perimeter=rhombusPerimeter;whiteSpace=wrap;html=1;align=center;rotation=0;" parent="1" vertex="1">
          <mxGeometry x="1870" y="1358.3599999999997" width="90" height="50" as="geometry" />
        </mxCell>
        <mxCell id="lzxHL98yrn8-DKB0zWzx-337" value="" style="group" parent="1" vertex="1" connectable="0">
          <mxGeometry x="1830" y="1820" width="100" height="40" as="geometry" />
        </mxCell>
        <mxCell id="lzxHL98yrn8-DKB0zWzx-338" value="HastaID" style="ellipse;whiteSpace=wrap;html=1;align=center;" parent="lzxHL98yrn8-DKB0zWzx-337" vertex="1">
          <mxGeometry width="100" height="40" as="geometry" />
        </mxCell>
        <mxCell id="lzxHL98yrn8-DKB0zWzx-339" value="" style="endArrow=none;html=1;rounded=0;dashed=1;dashPattern=1 2;" parent="lzxHL98yrn8-DKB0zWzx-337" edge="1">
          <mxGeometry relative="1" as="geometry">
            <mxPoint x="30" y="30" as="sourcePoint" />
            <mxPoint x="70" y="30" as="targetPoint" />
          </mxGeometry>
        </mxCell>
        <mxCell id="lzxHL98yrn8-DKB0zWzx-340" value="" style="resizable=0;html=1;whiteSpace=wrap;align=right;verticalAlign=bottom;" parent="lzxHL98yrn8-DKB0zWzx-339" connectable="0" vertex="1">
          <mxGeometry x="1" relative="1" as="geometry" />
        </mxCell>
        <mxCell id="lzxHL98yrn8-DKB0zWzx-341" value="" style="endArrow=none;html=1;rounded=0;" parent="1" source="lzxHL98yrn8-DKB0zWzx-300" target="lzxHL98yrn8-DKB0zWzx-336" edge="1">
          <mxGeometry relative="1" as="geometry">
            <mxPoint x="2090" y="907.3600000000001" as="sourcePoint" />
            <mxPoint x="2250" y="907.3600000000001" as="targetPoint" />
          </mxGeometry>
        </mxCell>
        <mxCell id="lzxHL98yrn8-DKB0zWzx-342" value="(1,1)" style="edgeLabel;html=1;align=center;verticalAlign=middle;resizable=0;points=[];" parent="lzxHL98yrn8-DKB0zWzx-341" vertex="1" connectable="0">
          <mxGeometry x="0.3919" y="-2" relative="1" as="geometry">
            <mxPoint x="1" y="67" as="offset" />
          </mxGeometry>
        </mxCell>
        <mxCell id="lzxHL98yrn8-DKB0zWzx-343" value="Yaş" style="ellipse;whiteSpace=wrap;html=1;align=center;" parent="1" vertex="1">
          <mxGeometry x="1385" y="1820" width="100" height="40" as="geometry" />
        </mxCell>
        <mxCell id="lzxHL98yrn8-DKB0zWzx-344" value="Kilo" style="ellipse;whiteSpace=wrap;html=1;align=center;" parent="1" vertex="1">
          <mxGeometry x="1730" y="1899.9999999999995" width="100" height="40" as="geometry" />
        </mxCell>
        <mxCell id="lzxHL98yrn8-DKB0zWzx-345" value="Boy" style="ellipse;whiteSpace=wrap;html=1;align=center;" parent="1" vertex="1">
          <mxGeometry x="1407.41" y="1869.9999999999995" width="100" height="40" as="geometry" />
        </mxCell>
        <mxCell id="lzxHL98yrn8-DKB0zWzx-346" value="" style="endArrow=none;html=1;rounded=0;entryX=0.75;entryY=1;entryDx=0;entryDy=0;" parent="1" source="lzxHL98yrn8-DKB0zWzx-344" target="lzxHL98yrn8-DKB0zWzx-304" edge="1">
          <mxGeometry relative="1" as="geometry">
            <mxPoint x="1905" y="1392.83" as="sourcePoint" />
            <mxPoint x="2065" y="1392.83" as="targetPoint" />
          </mxGeometry>
        </mxCell>
        <mxCell id="lzxHL98yrn8-DKB0zWzx-347" value="" style="endArrow=none;html=1;rounded=0;entryX=0;entryY=1;entryDx=0;entryDy=0;" parent="1" source="lzxHL98yrn8-DKB0zWzx-345" target="lzxHL98yrn8-DKB0zWzx-304" edge="1">
          <mxGeometry relative="1" as="geometry">
            <mxPoint x="1522" y="1809.83" as="sourcePoint" />
            <mxPoint x="1625" y="1825.83" as="targetPoint" />
          </mxGeometry>
        </mxCell>
        <mxCell id="lzxHL98yrn8-DKB0zWzx-348" value="" style="endArrow=none;html=1;rounded=0;entryX=0;entryY=0.75;entryDx=0;entryDy=0;" parent="1" source="lzxHL98yrn8-DKB0zWzx-343" target="lzxHL98yrn8-DKB0zWzx-304" edge="1">
          <mxGeometry relative="1" as="geometry">
            <mxPoint x="1905" y="1392.83" as="sourcePoint" />
            <mxPoint x="2065" y="1392.83" as="targetPoint" />
          </mxGeometry>
        </mxCell>
        <mxCell id="lzxHL98yrn8-DKB0zWzx-349" value="" style="shape=link;html=1;rounded=0;" parent="1" source="lzxHL98yrn8-DKB0zWzx-304" target="lzxHL98yrn8-DKB0zWzx-326" edge="1">
          <mxGeometry relative="1" as="geometry">
            <mxPoint x="1030" y="2581.0699999999997" as="sourcePoint" />
            <mxPoint x="1150" y="2571.64" as="targetPoint" />
          </mxGeometry>
        </mxCell>
        <mxCell id="lzxHL98yrn8-DKB0zWzx-350" value="&lt;font style=&quot;font-size: 14px;&quot;&gt;(1, 1)&lt;/font&gt;" style="edgeLabel;html=1;align=center;verticalAlign=middle;resizable=0;points=[];" parent="lzxHL98yrn8-DKB0zWzx-349" connectable="0" vertex="1">
          <mxGeometry x="-0.0349" y="3" relative="1" as="geometry">
            <mxPoint x="218" y="-172" as="offset" />
          </mxGeometry>
        </mxCell>
        <mxCell id="lzxHL98yrn8-DKB0zWzx-351" value="" style="endArrow=none;html=1;rounded=0;" parent="1" source="lzxHL98yrn8-DKB0zWzx-304" target="lzxHL98yrn8-DKB0zWzx-439" edge="1">
          <mxGeometry relative="1" as="geometry">
            <mxPoint x="1775" y="1691.6399999999999" as="sourcePoint" />
            <mxPoint x="1296.9985247440654" y="1813.1407376279667" as="targetPoint" />
          </mxGeometry>
        </mxCell>
        <mxCell id="lzxHL98yrn8-DKB0zWzx-352" value="(1, 1)" style="edgeLabel;html=1;align=center;verticalAlign=middle;resizable=0;points=[];" parent="lzxHL98yrn8-DKB0zWzx-351" vertex="1" connectable="0">
          <mxGeometry x="0.7009" y="-3" relative="1" as="geometry">
            <mxPoint x="-28" y="-11" as="offset" />
          </mxGeometry>
        </mxCell>
        <mxCell id="lzxHL98yrn8-DKB0zWzx-353" value="" style="endArrow=none;html=1;rounded=0;shape=link;" parent="1" source="lzxHL98yrn8-DKB0zWzx-439" target="lzxHL98yrn8-DKB0zWzx-436" edge="1">
          <mxGeometry relative="1" as="geometry">
            <mxPoint x="1180.0000000000005" y="1811.6399999999994" as="sourcePoint" />
            <mxPoint x="1010" y="1828.1342857142854" as="targetPoint" />
          </mxGeometry>
        </mxCell>
        <mxCell id="lzxHL98yrn8-DKB0zWzx-354" value="(1, N)" style="edgeLabel;html=1;align=center;verticalAlign=middle;resizable=0;points=[];" parent="lzxHL98yrn8-DKB0zWzx-353" vertex="1" connectable="0">
          <mxGeometry x="-0.0022" y="-1" relative="1" as="geometry">
            <mxPoint x="71" y="-11" as="offset" />
          </mxGeometry>
        </mxCell>
        <mxCell id="lzxHL98yrn8-DKB0zWzx-355" value="" style="endArrow=none;html=1;rounded=0;" parent="1" source="lzxHL98yrn8-DKB0zWzx-300" target="lzxHL98yrn8-DKB0zWzx-369" edge="1">
          <mxGeometry relative="1" as="geometry">
            <mxPoint x="1550" y="1128.3600000000001" as="sourcePoint" />
            <mxPoint x="2089.455769930834" y="1120.8354277393523" as="targetPoint" />
          </mxGeometry>
        </mxCell>
        <mxCell id="lzxHL98yrn8-DKB0zWzx-356" value="(0,N)" style="edgeLabel;html=1;align=center;verticalAlign=middle;resizable=0;points=[];" parent="lzxHL98yrn8-DKB0zWzx-355" vertex="1" connectable="0">
          <mxGeometry x="0.2038" y="-1" relative="1" as="geometry">
            <mxPoint x="86" y="149" as="offset" />
          </mxGeometry>
        </mxCell>
        <mxCell id="lzxHL98yrn8-DKB0zWzx-357" value="(0,N)" style="endArrow=none;html=1;rounded=0;shape=link;exitX=0.75;exitY=0;exitDx=0;exitDy=0;" parent="1" source="lzxHL98yrn8-DKB0zWzx-436" target="lzxHL98yrn8-DKB0zWzx-435" edge="1">
          <mxGeometry x="0.9357" y="-33" relative="1" as="geometry">
            <mxPoint x="968.728408673282" y="1811.7200000000003" as="sourcePoint" />
            <mxPoint x="1140.8852500959447" y="1417.2452500959453" as="targetPoint" />
            <mxPoint as="offset" />
          </mxGeometry>
        </mxCell>
        <mxCell id="lzxHL98yrn8-DKB0zWzx-358" value="" style="endArrow=none;html=1;rounded=0;" parent="1" source="lzxHL98yrn8-DKB0zWzx-435" target="lzxHL98yrn8-DKB0zWzx-302" edge="1">
          <mxGeometry relative="1" as="geometry">
            <mxPoint x="1160.939922991719" y="1377.2999229917195" as="sourcePoint" />
            <mxPoint x="1872" y="1874.5" as="targetPoint" />
          </mxGeometry>
        </mxCell>
        <mxCell id="lzxHL98yrn8-DKB0zWzx-359" value="(1, 1)" style="edgeLabel;html=1;align=center;verticalAlign=middle;resizable=0;points=[];" parent="lzxHL98yrn8-DKB0zWzx-358" vertex="1" connectable="0">
          <mxGeometry x="-0.8649" y="3" relative="1" as="geometry">
            <mxPoint x="-26" y="2" as="offset" />
          </mxGeometry>
        </mxCell>
        <mxCell id="lzxHL98yrn8-DKB0zWzx-360" value="Tarih" style="ellipse;whiteSpace=wrap;html=1;align=center;" parent="1" vertex="1">
          <mxGeometry x="690" y="1783.7200000000003" width="100" height="40" as="geometry" />
        </mxCell>
        <mxCell id="lzxHL98yrn8-DKB0zWzx-361" value="" style="endArrow=none;html=1;rounded=0;exitX=0;exitY=0.75;exitDx=0;exitDy=0;" parent="1" source="lzxHL98yrn8-DKB0zWzx-436" target="lzxHL98yrn8-DKB0zWzx-360" edge="1">
          <mxGeometry relative="1" as="geometry">
            <mxPoint x="910" y="1825.3248840242368" as="sourcePoint" />
            <mxPoint x="762" y="1734.7200000000003" as="targetPoint" />
          </mxGeometry>
        </mxCell>
        <mxCell id="lzxHL98yrn8-DKB0zWzx-362" value="&lt;div&gt;Verir&lt;/div&gt;" style="shape=rhombus;perimeter=rhombusPerimeter;whiteSpace=wrap;html=1;align=center;rotation=0;" parent="1" vertex="1">
          <mxGeometry x="1295" y="1420" width="90" height="50" as="geometry" />
        </mxCell>
        <mxCell id="lzxHL98yrn8-DKB0zWzx-363" value="(0,M)" style="endArrow=none;html=1;rounded=0;" parent="1" source="lzxHL98yrn8-DKB0zWzx-362" target="lzxHL98yrn8-DKB0zWzx-302" edge="1">
          <mxGeometry x="-0.9178" y="-22" relative="1" as="geometry">
            <mxPoint x="1853" y="2290" as="sourcePoint" />
            <mxPoint x="1847" y="2240" as="targetPoint" />
            <mxPoint as="offset" />
          </mxGeometry>
        </mxCell>
        <mxCell id="lzxHL98yrn8-DKB0zWzx-364" value="(0,N)" style="endArrow=none;html=1;rounded=0;" parent="1" source="lzxHL98yrn8-DKB0zWzx-303" target="lzxHL98yrn8-DKB0zWzx-362" edge="1">
          <mxGeometry x="0.7162" y="-19" relative="1" as="geometry">
            <mxPoint x="1348" y="1910" as="sourcePoint" />
            <mxPoint x="1342" y="1860" as="targetPoint" />
            <mxPoint x="1" as="offset" />
          </mxGeometry>
        </mxCell>
        <mxCell id="lzxHL98yrn8-DKB0zWzx-365" value="" style="endArrow=none;html=1;rounded=0;" parent="1" source="lzxHL98yrn8-DKB0zWzx-442" target="lzxHL98yrn8-DKB0zWzx-301" edge="1">
          <mxGeometry relative="1" as="geometry">
            <mxPoint x="865.2192105263157" y="1637.140789473684" as="sourcePoint" />
            <mxPoint x="1304" y="1776.3600000000001" as="targetPoint" />
          </mxGeometry>
        </mxCell>
        <mxCell id="lzxHL98yrn8-DKB0zWzx-366" value="(0,M)" style="edgeLabel;html=1;align=center;verticalAlign=middle;resizable=0;points=[];" parent="lzxHL98yrn8-DKB0zWzx-365" vertex="1" connectable="0">
          <mxGeometry x="-0.1072" y="-3" relative="1" as="geometry">
            <mxPoint x="15" y="45" as="offset" />
          </mxGeometry>
        </mxCell>
        <mxCell id="lzxHL98yrn8-DKB0zWzx-367" value="Muayene Faturası" style="shape=ext;margin=3;double=1;whiteSpace=wrap;html=1;align=center;" parent="1" vertex="1">
          <mxGeometry x="2270" y="1323.3599999999997" width="120" height="50" as="geometry" />
        </mxCell>
        <mxCell id="lzxHL98yrn8-DKB0zWzx-368" value="Renk" style="ellipse;shape=doubleEllipse;margin=3;whiteSpace=wrap;html=1;align=center;" parent="1" vertex="1">
          <mxGeometry x="1505" y="1899.9999999999995" width="100" height="40" as="geometry" />
        </mxCell>
        <mxCell id="lzxHL98yrn8-DKB0zWzx-369" value="Öder" style="shape=rhombus;double=1;perimeter=rhombusPerimeter;whiteSpace=wrap;html=1;align=center;" parent="1" vertex="1">
          <mxGeometry x="2270" y="1200" width="85" height="60" as="geometry" />
        </mxCell>
        <mxCell id="lzxHL98yrn8-DKB0zWzx-370" value="" style="endArrow=none;html=1;rounded=0;exitX=0.183;exitY=0.986;exitDx=0;exitDy=0;exitPerimeter=0;" parent="1" source="lzxHL98yrn8-DKB0zWzx-304" target="lzxHL98yrn8-DKB0zWzx-368" edge="1">
          <mxGeometry relative="1" as="geometry">
            <mxPoint x="1613" y="1842.83" as="sourcePoint" />
            <mxPoint x="1535" y="1914.83" as="targetPoint" />
          </mxGeometry>
        </mxCell>
        <mxCell id="lzxHL98yrn8-DKB0zWzx-371" value="" style="endArrow=none;html=1;rounded=0;" parent="1" source="lzxHL98yrn8-DKB0zWzx-302" target="lzxHL98yrn8-DKB0zWzx-372" edge="1">
          <mxGeometry relative="1" as="geometry">
            <mxPoint x="1265.91" y="930" as="sourcePoint" />
            <mxPoint x="1380" y="950" as="targetPoint" />
          </mxGeometry>
        </mxCell>
        <mxCell id="lzxHL98yrn8-DKB0zWzx-372" value="OdaNo" style="ellipse;whiteSpace=wrap;html=1;align=center;" parent="1" vertex="1">
          <mxGeometry x="1180.0000000000005" y="960" width="100" height="40" as="geometry" />
        </mxCell>
        <mxCell id="lzxHL98yrn8-DKB0zWzx-373" style="edgeStyle=none;rounded=0;orthogonalLoop=1;jettySize=auto;html=1;exitX=0.5;exitY=0;exitDx=0;exitDy=0;" parent="1" source="lzxHL98yrn8-DKB0zWzx-360" target="lzxHL98yrn8-DKB0zWzx-360" edge="1">
          <mxGeometry relative="1" as="geometry" />
        </mxCell>
        <mxCell id="lzxHL98yrn8-DKB0zWzx-374" value="Review Verir" style="shape=rhombus;perimeter=rhombusPerimeter;whiteSpace=wrap;html=1;align=center;" parent="1" vertex="1">
          <mxGeometry x="1560" y="1306.3600000000001" width="120" height="60" as="geometry" />
        </mxCell>
        <mxCell id="lzxHL98yrn8-DKB0zWzx-375" value="(0,M)" style="endArrow=none;html=1;rounded=0;" parent="1" source="lzxHL98yrn8-DKB0zWzx-374" target="lzxHL98yrn8-DKB0zWzx-302" edge="1">
          <mxGeometry x="-0.882" y="-15" relative="1" as="geometry">
            <mxPoint x="1448" y="2200" as="sourcePoint" />
            <mxPoint x="1548" y="2160" as="targetPoint" />
            <Array as="points" />
            <mxPoint y="-1" as="offset" />
          </mxGeometry>
        </mxCell>
        <mxCell id="lzxHL98yrn8-DKB0zWzx-376" value="TelefonNo" style="ellipse;whiteSpace=wrap;html=1;align=center;" parent="1" vertex="1">
          <mxGeometry x="1425" y="1078.3600000000001" width="100" height="40" as="geometry" />
        </mxCell>
        <mxCell id="lzxHL98yrn8-DKB0zWzx-377" value="Soyisim" style="ellipse;whiteSpace=wrap;html=1;align=center;" parent="1" vertex="1">
          <mxGeometry x="1435.0000000000005" y="930" width="100" height="40" as="geometry" />
        </mxCell>
        <mxCell id="lzxHL98yrn8-DKB0zWzx-378" value="Adres" style="ellipse;whiteSpace=wrap;html=1;align=center;" parent="1" vertex="1">
          <mxGeometry x="1570" y="1080.5499999999997" width="100" height="40" as="geometry" />
        </mxCell>
        <mxCell id="lzxHL98yrn8-DKB0zWzx-379" value="İlçe" style="ellipse;whiteSpace=wrap;html=1;align=center;" parent="1" vertex="1">
          <mxGeometry x="1630" y="1144.5499999999997" width="100" height="40" as="geometry" />
        </mxCell>
        <mxCell id="lzxHL98yrn8-DKB0zWzx-380" style="edgeStyle=none;rounded=0;orthogonalLoop=1;jettySize=auto;html=1;exitX=0;exitY=0;exitDx=0;exitDy=0;" parent="1" source="lzxHL98yrn8-DKB0zWzx-381" target="lzxHL98yrn8-DKB0zWzx-381" edge="1">
          <mxGeometry relative="1" as="geometry" />
        </mxCell>
        <mxCell id="lzxHL98yrn8-DKB0zWzx-381" value="Puan" style="ellipse;whiteSpace=wrap;html=1;align=center;" parent="1" vertex="1">
          <mxGeometry x="1432.5900000000001" y="1298.3600000000001" width="100" height="40" as="geometry" />
        </mxCell>
        <mxCell id="lzxHL98yrn8-DKB0zWzx-382" value="" style="endArrow=none;html=1;rounded=0;" parent="1" source="lzxHL98yrn8-DKB0zWzx-381" target="lzxHL98yrn8-DKB0zWzx-374" edge="1">
          <mxGeometry relative="1" as="geometry">
            <mxPoint x="1530" y="1276.3600000000001" as="sourcePoint" />
            <mxPoint x="1700" y="1336.3600000000001" as="targetPoint" />
          </mxGeometry>
        </mxCell>
        <mxCell id="lzxHL98yrn8-DKB0zWzx-383" value="" style="endArrow=none;html=1;rounded=0;" parent="1" source="lzxHL98yrn8-DKB0zWzx-392" target="lzxHL98yrn8-DKB0zWzx-374" edge="1">
          <mxGeometry relative="1" as="geometry">
            <mxPoint x="1555" y="1290.3600000000001" as="sourcePoint" />
            <mxPoint x="1600" y="1331.3600000000001" as="targetPoint" />
          </mxGeometry>
        </mxCell>
        <mxCell id="lzxHL98yrn8-DKB0zWzx-384" value="Mahalle" style="ellipse;whiteSpace=wrap;html=1;align=center;" parent="1" vertex="1">
          <mxGeometry x="1525" y="1124.5499999999997" width="100" height="40" as="geometry" />
        </mxCell>
        <mxCell id="lzxHL98yrn8-DKB0zWzx-385" value="" style="endArrow=none;html=1;rounded=0;" parent="1" source="lzxHL98yrn8-DKB0zWzx-378" target="lzxHL98yrn8-DKB0zWzx-379" edge="1">
          <mxGeometry relative="1" as="geometry">
            <mxPoint x="2180" y="1465.5500000000002" as="sourcePoint" />
            <mxPoint x="2340" y="1465.5500000000002" as="targetPoint" />
          </mxGeometry>
        </mxCell>
        <mxCell id="lzxHL98yrn8-DKB0zWzx-386" value="" style="endArrow=none;html=1;rounded=0;" parent="1" source="lzxHL98yrn8-DKB0zWzx-378" target="lzxHL98yrn8-DKB0zWzx-384" edge="1">
          <mxGeometry relative="1" as="geometry">
            <mxPoint x="2076" y="1599.5500000000002" as="sourcePoint" />
            <mxPoint x="1672.430215321388" y="1114.0157218463414" as="targetPoint" />
          </mxGeometry>
        </mxCell>
        <mxCell id="lzxHL98yrn8-DKB0zWzx-387" value="" style="endArrow=none;html=1;rounded=0;" parent="1" source="lzxHL98yrn8-DKB0zWzx-302" target="lzxHL98yrn8-DKB0zWzx-378" edge="1">
          <mxGeometry relative="1" as="geometry">
            <mxPoint x="1530" y="1350" as="sourcePoint" />
            <mxPoint x="1940" y="1276" as="targetPoint" />
          </mxGeometry>
        </mxCell>
        <mxCell id="lzxHL98yrn8-DKB0zWzx-388" value="" style="endArrow=none;html=1;rounded=0;entryX=0.5;entryY=0;entryDx=0;entryDy=0;exitX=0.166;exitY=0.983;exitDx=0;exitDy=0;exitPerimeter=0;" parent="1" source="lzxHL98yrn8-DKB0zWzx-302" target="lzxHL98yrn8-DKB0zWzx-438" edge="1">
          <mxGeometry relative="1" as="geometry">
            <mxPoint x="1381" y="1065" as="sourcePoint" />
            <mxPoint x="1495.4386049658683" y="1042.3567255981793" as="targetPoint" />
          </mxGeometry>
        </mxCell>
        <mxCell id="lzxHL98yrn8-DKB0zWzx-389" value="" style="endArrow=none;html=1;rounded=0;" parent="1" source="lzxHL98yrn8-DKB0zWzx-302" target="lzxHL98yrn8-DKB0zWzx-376" edge="1">
          <mxGeometry relative="1" as="geometry">
            <mxPoint x="1417" y="1050" as="sourcePoint" />
            <mxPoint x="1581" y="1065" as="targetPoint" />
          </mxGeometry>
        </mxCell>
        <mxCell id="lzxHL98yrn8-DKB0zWzx-390" value="(0,N)" style="endArrow=none;html=1;rounded=0;" parent="1" source="lzxHL98yrn8-DKB0zWzx-374" target="lzxHL98yrn8-DKB0zWzx-300" edge="1">
          <mxGeometry x="-0.7963" y="-17" relative="1" as="geometry">
            <mxPoint x="1487" y="1953" as="sourcePoint" />
            <mxPoint x="1955" y="1665" as="targetPoint" />
            <Array as="points" />
            <mxPoint as="offset" />
          </mxGeometry>
        </mxCell>
        <mxCell id="lzxHL98yrn8-DKB0zWzx-391" value="" style="endArrow=none;html=1;rounded=0;exitX=0.75;exitY=0;exitDx=0;exitDy=0;" parent="1" source="lzxHL98yrn8-DKB0zWzx-302" target="lzxHL98yrn8-DKB0zWzx-377" edge="1">
          <mxGeometry relative="1" as="geometry">
            <mxPoint x="1417" y="1045" as="sourcePoint" />
            <mxPoint x="1490" y="1045" as="targetPoint" />
          </mxGeometry>
        </mxCell>
        <mxCell id="lzxHL98yrn8-DKB0zWzx-392" value="Açıklama" style="ellipse;whiteSpace=wrap;html=1;align=center;" parent="1" vertex="1">
          <mxGeometry x="1460" y="1370" width="75" height="40" as="geometry" />
        </mxCell>
        <mxCell id="lzxHL98yrn8-DKB0zWzx-393" value="" style="endArrow=none;html=1;rounded=0;exitX=0.25;exitY=1;exitDx=0;exitDy=0;entryX=0.5;entryY=0;entryDx=0;entryDy=0;" parent="1" source="lzxHL98yrn8-DKB0zWzx-367" target="lzxHL98yrn8-DKB0zWzx-427" edge="1">
          <mxGeometry relative="1" as="geometry">
            <mxPoint x="2130.2" y="1039.5499999999997" as="sourcePoint" />
            <mxPoint x="2032.2" y="1466.19" as="targetPoint" />
            <Array as="points" />
          </mxGeometry>
        </mxCell>
        <mxCell id="lzxHL98yrn8-DKB0zWzx-394" value="" style="shape=link;html=1;rounded=0;" parent="1" source="lzxHL98yrn8-DKB0zWzx-367" target="lzxHL98yrn8-DKB0zWzx-369" edge="1">
          <mxGeometry relative="1" as="geometry">
            <mxPoint x="2142.2" y="1064.5499999999997" as="sourcePoint" />
            <mxPoint x="2302.2" y="1064.5499999999997" as="targetPoint" />
          </mxGeometry>
        </mxCell>
        <mxCell id="lzxHL98yrn8-DKB0zWzx-395" value="(1,1)" style="edgeLabel;html=1;align=center;verticalAlign=middle;resizable=0;points=[];" parent="lzxHL98yrn8-DKB0zWzx-394" vertex="1" connectable="0">
          <mxGeometry x="0.0255" y="-2" relative="1" as="geometry">
            <mxPoint x="-43" y="-120" as="offset" />
          </mxGeometry>
        </mxCell>
        <mxCell id="lzxHL98yrn8-DKB0zWzx-396" value="Soyisim" style="ellipse;whiteSpace=wrap;html=1;align=center;" parent="1" vertex="1">
          <mxGeometry x="2240" y="1040.5499999999997" width="100" height="40" as="geometry" />
        </mxCell>
        <mxCell id="lzxHL98yrn8-DKB0zWzx-397" value="" style="endArrow=none;html=1;rounded=0;exitX=1;exitY=1;exitDx=0;exitDy=0;" parent="1" source="lzxHL98yrn8-DKB0zWzx-300" target="lzxHL98yrn8-DKB0zWzx-396" edge="1">
          <mxGeometry relative="1" as="geometry">
            <mxPoint x="2139" y="1008.3600000000001" as="sourcePoint" />
            <mxPoint x="2207" y="1128.3600000000001" as="targetPoint" />
          </mxGeometry>
        </mxCell>
        <mxCell id="lzxHL98yrn8-DKB0zWzx-398" value="Admin" style="whiteSpace=wrap;html=1;align=center;" parent="1" vertex="1">
          <mxGeometry x="836.5" y="1040.5499999999997" width="100" height="40" as="geometry" />
        </mxCell>
        <mxCell id="lzxHL98yrn8-DKB0zWzx-399" value="İlaç Alır" style="shape=rhombus;perimeter=rhombusPerimeter;whiteSpace=wrap;html=1;align=center;" parent="1" vertex="1">
          <mxGeometry x="810" y="1190.5500000000002" width="65" height="60" as="geometry" />
        </mxCell>
        <mxCell id="lzxHL98yrn8-DKB0zWzx-400" value="&lt;div&gt;Ekler&lt;/div&gt;" style="shape=rhombus;perimeter=rhombusPerimeter;whiteSpace=wrap;html=1;align=center;" parent="1" vertex="1">
          <mxGeometry x="990.0000000000001" y="1096" width="120" height="60" as="geometry" />
        </mxCell>
        <mxCell id="lzxHL98yrn8-DKB0zWzx-401" value="" style="endArrow=none;html=1;rounded=0;" parent="1" source="lzxHL98yrn8-DKB0zWzx-301" target="lzxHL98yrn8-DKB0zWzx-399" edge="1">
          <mxGeometry relative="1" as="geometry">
            <mxPoint x="1515" y="1500" as="sourcePoint" />
            <mxPoint x="880" y="1280" as="targetPoint" />
          </mxGeometry>
        </mxCell>
        <mxCell id="lzxHL98yrn8-DKB0zWzx-402" value="(0, N)" style="edgeLabel;html=1;align=center;verticalAlign=middle;resizable=0;points=[];" parent="lzxHL98yrn8-DKB0zWzx-401" vertex="1" connectable="0">
          <mxGeometry x="0.2668" y="-3" relative="1" as="geometry">
            <mxPoint y="7" as="offset" />
          </mxGeometry>
        </mxCell>
        <mxCell id="lzxHL98yrn8-DKB0zWzx-403" value="" style="endArrow=none;html=1;rounded=0;" parent="1" source="lzxHL98yrn8-DKB0zWzx-399" target="lzxHL98yrn8-DKB0zWzx-398" edge="1">
          <mxGeometry relative="1" as="geometry">
            <mxPoint x="760" y="1070.5499999999997" as="sourcePoint" />
            <mxPoint x="1340" y="1175.5500000000002" as="targetPoint" />
            <Array as="points" />
          </mxGeometry>
        </mxCell>
        <mxCell id="lzxHL98yrn8-DKB0zWzx-404" value="(1,1)" style="edgeLabel;html=1;align=center;verticalAlign=middle;resizable=0;points=[];" parent="lzxHL98yrn8-DKB0zWzx-403" vertex="1" connectable="0">
          <mxGeometry x="-0.0146" y="3" relative="1" as="geometry">
            <mxPoint x="-18" y="10" as="offset" />
          </mxGeometry>
        </mxCell>
        <mxCell id="lzxHL98yrn8-DKB0zWzx-405" value="(1, 1)" style="endArrow=none;html=1;rounded=0;" parent="1" source="lzxHL98yrn8-DKB0zWzx-400" target="lzxHL98yrn8-DKB0zWzx-398" edge="1">
          <mxGeometry x="-0.1899" y="11" relative="1" as="geometry">
            <mxPoint x="1515" y="1295.5500000000002" as="sourcePoint" />
            <mxPoint x="1609" y="1220.5500000000002" as="targetPoint" />
            <mxPoint as="offset" />
          </mxGeometry>
        </mxCell>
        <mxCell id="lzxHL98yrn8-DKB0zWzx-406" value="(0, N)" style="endArrow=none;html=1;rounded=0;" parent="1" source="lzxHL98yrn8-DKB0zWzx-400" target="lzxHL98yrn8-DKB0zWzx-302" edge="1">
          <mxGeometry x="-0.7423" y="-14" relative="1" as="geometry">
            <mxPoint x="2115" y="1557" as="sourcePoint" />
            <mxPoint x="2016" y="1625" as="targetPoint" />
            <mxPoint as="offset" />
          </mxGeometry>
        </mxCell>
        <mxCell id="lzxHL98yrn8-DKB0zWzx-407" value="İl" style="ellipse;whiteSpace=wrap;html=1;align=center;" parent="1" vertex="1">
          <mxGeometry x="2300" y="758" width="100" height="40" as="geometry" />
        </mxCell>
        <mxCell id="lzxHL98yrn8-DKB0zWzx-408" value="" style="endArrow=none;html=1;rounded=0;entryX=0.5;entryY=1;entryDx=0;entryDy=0;exitX=0.5;exitY=0;exitDx=0;exitDy=0;" parent="1" source="lzxHL98yrn8-DKB0zWzx-307" target="lzxHL98yrn8-DKB0zWzx-407" edge="1">
          <mxGeometry relative="1" as="geometry">
            <mxPoint x="1891" y="1007.3600000000001" as="sourcePoint" />
            <mxPoint x="1854" y="1009.3600000000001" as="targetPoint" />
          </mxGeometry>
        </mxCell>
        <mxCell id="lzxHL98yrn8-DKB0zWzx-409" value="İl" style="ellipse;whiteSpace=wrap;html=1;align=center;" parent="1" vertex="1">
          <mxGeometry x="1710" y="1094.5499999999997" width="100" height="40" as="geometry" />
        </mxCell>
        <mxCell id="lzxHL98yrn8-DKB0zWzx-410" value="" style="endArrow=none;html=1;rounded=0;" parent="1" source="lzxHL98yrn8-DKB0zWzx-409" target="lzxHL98yrn8-DKB0zWzx-378" edge="1">
          <mxGeometry relative="1" as="geometry">
            <mxPoint x="1613" y="1129.5499999999997" as="sourcePoint" />
            <mxPoint x="1588" y="1155.5499999999997" as="targetPoint" />
          </mxGeometry>
        </mxCell>
        <mxCell id="lzxHL98yrn8-DKB0zWzx-411" value="&lt;div&gt;Ücret&lt;/div&gt;" style="ellipse;whiteSpace=wrap;html=1;align=center;" parent="1" vertex="1">
          <mxGeometry x="2355" y="1440" width="100" height="40" as="geometry" />
        </mxCell>
        <mxCell id="lzxHL98yrn8-DKB0zWzx-412" value="" style="endArrow=none;html=1;rounded=0;exitX=0.75;exitY=1;exitDx=0;exitDy=0;entryX=0.5;entryY=0;entryDx=0;entryDy=0;" parent="1" source="lzxHL98yrn8-DKB0zWzx-367" target="lzxHL98yrn8-DKB0zWzx-411" edge="1">
          <mxGeometry relative="1" as="geometry">
            <mxPoint x="2112.2" y="1064.5499999999997" as="sourcePoint" />
            <mxPoint x="2272.2" y="1064.5499999999997" as="targetPoint" />
          </mxGeometry>
        </mxCell>
        <mxCell id="lzxHL98yrn8-DKB0zWzx-413" value="Kullanıcı" style="whiteSpace=wrap;html=1;align=center;" parent="1" vertex="1">
          <mxGeometry x="1460" y="680" width="100" height="40" as="geometry" />
        </mxCell>
        <mxCell id="lzxHL98yrn8-DKB0zWzx-414" value="d" style="ellipse;whiteSpace=wrap;html=1;aspect=fixed;" parent="1" vertex="1">
          <mxGeometry x="1490.01" y="758" width="40" height="40" as="geometry" />
        </mxCell>
        <mxCell id="lzxHL98yrn8-DKB0zWzx-415" value="" style="endArrow=none;html=1;rounded=0;exitX=0;exitY=1;exitDx=0;exitDy=0;entryX=1;entryY=0;entryDx=0;entryDy=0;" parent="1" source="lzxHL98yrn8-DKB0zWzx-414" target="lzxHL98yrn8-DKB0zWzx-398" edge="1">
          <mxGeometry relative="1" as="geometry">
            <mxPoint x="1518.34" y="718" as="sourcePoint" />
            <mxPoint x="1450" y="828" as="targetPoint" />
          </mxGeometry>
        </mxCell>
        <mxCell id="lzxHL98yrn8-DKB0zWzx-416" value="U" style="edgeLabel;html=1;align=center;verticalAlign=middle;resizable=0;points=[];rotation=65;labelBackgroundColor=none;fontSize=30;" parent="lzxHL98yrn8-DKB0zWzx-415" vertex="1" connectable="0">
          <mxGeometry relative="1" as="geometry">
            <mxPoint as="offset" />
          </mxGeometry>
        </mxCell>
        <mxCell id="lzxHL98yrn8-DKB0zWzx-417" value="" style="endArrow=none;html=1;rounded=0;exitX=1;exitY=1;exitDx=0;exitDy=0;entryX=0;entryY=0;entryDx=0;entryDy=0;" parent="1" source="lzxHL98yrn8-DKB0zWzx-414" target="lzxHL98yrn8-DKB0zWzx-300" edge="1">
          <mxGeometry relative="1" as="geometry">
            <mxPoint x="1528.34" y="728" as="sourcePoint" />
            <mxPoint x="1570" y="828" as="targetPoint" />
          </mxGeometry>
        </mxCell>
        <mxCell id="lzxHL98yrn8-DKB0zWzx-418" value="U" style="edgeLabel;html=1;align=center;verticalAlign=middle;resizable=0;points=[];rotation=-65;labelBackgroundColor=none;fontSize=30;" parent="lzxHL98yrn8-DKB0zWzx-417" vertex="1" connectable="0">
          <mxGeometry relative="1" as="geometry">
            <mxPoint x="10" y="5" as="offset" />
          </mxGeometry>
        </mxCell>
        <mxCell id="lzxHL98yrn8-DKB0zWzx-419" value="" style="endArrow=none;html=1;rounded=0;entryX=1;entryY=0;entryDx=0;entryDy=0;" parent="1" source="lzxHL98yrn8-DKB0zWzx-420" target="lzxHL98yrn8-DKB0zWzx-413" edge="1">
          <mxGeometry relative="1" as="geometry">
            <mxPoint x="1651" y="780" as="sourcePoint" />
            <mxPoint x="1570" y="675" as="targetPoint" />
          </mxGeometry>
        </mxCell>
        <mxCell id="lzxHL98yrn8-DKB0zWzx-420" value="Email" style="ellipse;whiteSpace=wrap;html=1;align=center;" parent="1" vertex="1">
          <mxGeometry x="1595" y="590" width="100" height="40" as="geometry" />
        </mxCell>
        <mxCell id="lzxHL98yrn8-DKB0zWzx-421" value="Şifre" style="ellipse;whiteSpace=wrap;html=1;align=center;" parent="1" vertex="1">
          <mxGeometry x="1617" y="650" width="100" height="40" as="geometry" />
        </mxCell>
        <mxCell id="lzxHL98yrn8-DKB0zWzx-422" value="" style="endArrow=none;html=1;rounded=0;exitX=1;exitY=0.5;exitDx=0;exitDy=0;" parent="1" source="lzxHL98yrn8-DKB0zWzx-413" target="lzxHL98yrn8-DKB0zWzx-421" edge="1">
          <mxGeometry relative="1" as="geometry">
            <mxPoint x="1570.0000000000005" y="642" as="sourcePoint" />
            <mxPoint x="1867" y="681" as="targetPoint" />
          </mxGeometry>
        </mxCell>
        <mxCell id="lzxHL98yrn8-DKB0zWzx-423" value="" style="endArrow=none;html=1;rounded=0;exitX=0.5;exitY=1;exitDx=0;exitDy=0;entryX=0.5;entryY=0;entryDx=0;entryDy=0;" parent="1" source="lzxHL98yrn8-DKB0zWzx-414" target="lzxHL98yrn8-DKB0zWzx-302" edge="1">
          <mxGeometry relative="1" as="geometry">
            <mxPoint x="1510" y="840" as="sourcePoint" />
            <mxPoint x="1510" y="860" as="targetPoint" />
          </mxGeometry>
        </mxCell>
        <mxCell id="lzxHL98yrn8-DKB0zWzx-424" value="U" style="edgeLabel;html=1;align=center;verticalAlign=middle;resizable=0;points=[];rotation=30;labelBackgroundColor=none;fontSize=30;" parent="lzxHL98yrn8-DKB0zWzx-423" vertex="1" connectable="0">
          <mxGeometry relative="1" as="geometry">
            <mxPoint as="offset" />
          </mxGeometry>
        </mxCell>
        <mxCell id="lzxHL98yrn8-DKB0zWzx-425" value="" style="endArrow=none;html=1;rounded=0;shape=link;entryX=0.5;entryY=1;entryDx=0;entryDy=0;exitX=0.5;exitY=0;exitDx=0;exitDy=0;" parent="1" source="lzxHL98yrn8-DKB0zWzx-414" edge="1">
          <mxGeometry x="0.939" y="-14" relative="1" as="geometry">
            <mxPoint x="1600" y="760" as="sourcePoint" />
            <mxPoint x="1510" y="720" as="targetPoint" />
            <mxPoint as="offset" />
          </mxGeometry>
        </mxCell>
        <mxCell id="lzxHL98yrn8-DKB0zWzx-426" value="" style="group" parent="1" vertex="1" connectable="0">
          <mxGeometry x="2240" y="1433.81" width="100" height="46.19" as="geometry" />
        </mxCell>
        <mxCell id="lzxHL98yrn8-DKB0zWzx-427" value="" style="ellipse;whiteSpace=wrap;html=1;align=center;" parent="lzxHL98yrn8-DKB0zWzx-426" vertex="1">
          <mxGeometry width="100" height="40" as="geometry" />
        </mxCell>
        <mxCell id="lzxHL98yrn8-DKB0zWzx-428" value="FaturaID" style="group" parent="lzxHL98yrn8-DKB0zWzx-426" vertex="1" connectable="0">
          <mxGeometry y="6.189999999999998" width="100" height="40" as="geometry" />
        </mxCell>
        <mxCell id="lzxHL98yrn8-DKB0zWzx-429" value="" style="endArrow=none;html=1;rounded=0;dashed=1;dashPattern=1 2;" parent="lzxHL98yrn8-DKB0zWzx-428" edge="1">
          <mxGeometry relative="1" as="geometry">
            <mxPoint x="30.000000000000004" y="25.28" as="sourcePoint" />
            <mxPoint x="70" y="25.28" as="targetPoint" />
          </mxGeometry>
        </mxCell>
        <mxCell id="lzxHL98yrn8-DKB0zWzx-430" value="" style="resizable=0;html=1;whiteSpace=wrap;align=right;verticalAlign=bottom;" parent="lzxHL98yrn8-DKB0zWzx-429" connectable="0" vertex="1">
          <mxGeometry x="1" relative="1" as="geometry" />
        </mxCell>
        <mxCell id="lzxHL98yrn8-DKB0zWzx-431" value="Rol" style="ellipse;whiteSpace=wrap;html=1;align=center;" parent="1" vertex="1">
          <mxGeometry x="1635" y="718" width="100" height="40" as="geometry" />
        </mxCell>
        <mxCell id="lzxHL98yrn8-DKB0zWzx-432" value="" style="endArrow=none;html=1;rounded=0;exitX=1;exitY=1;exitDx=0;exitDy=0;" parent="1" source="lzxHL98yrn8-DKB0zWzx-413" target="lzxHL98yrn8-DKB0zWzx-431" edge="1">
          <mxGeometry relative="1" as="geometry">
            <mxPoint x="1580" y="758" as="sourcePoint" />
            <mxPoint x="1887" y="739" as="targetPoint" />
          </mxGeometry>
        </mxCell>
        <mxCell id="lzxHL98yrn8-DKB0zWzx-433" value="" style="endArrow=none;html=1;rounded=0;entryX=0.75;entryY=0;entryDx=0;entryDy=0;exitX=0.5;exitY=1;exitDx=0;exitDy=0;" parent="1" source="lzxHL98yrn8-DKB0zWzx-434" target="lzxHL98yrn8-DKB0zWzx-413" edge="1">
          <mxGeometry relative="1" as="geometry">
            <mxPoint x="1530" y="599.9999999999995" as="sourcePoint" />
            <mxPoint x="1490" y="860" as="targetPoint" />
          </mxGeometry>
        </mxCell>
        <mxCell id="lzxHL98yrn8-DKB0zWzx-434" value="KullanıcıID" style="ellipse;whiteSpace=wrap;html=1;align=center;fontStyle=4;" parent="1" vertex="1">
          <mxGeometry x="1460" y="598" width="100" height="40" as="geometry" />
        </mxCell>
        <mxCell id="lzxHL98yrn8-DKB0zWzx-435" value="Yazar" style="shape=rhombus;perimeter=rhombusPerimeter;whiteSpace=wrap;html=1;align=center;" parent="1" vertex="1">
          <mxGeometry x="1110" y="1353.3600000000001" width="65" height="60" as="geometry" />
        </mxCell>
        <mxCell id="lzxHL98yrn8-DKB0zWzx-436" value="Reçete" style="whiteSpace=wrap;html=1;align=center;" parent="1" vertex="1">
          <mxGeometry x="907" y="1791.6400000000003" width="100" height="40" as="geometry" />
        </mxCell>
        <mxCell id="lzxHL98yrn8-DKB0zWzx-437" value="ReçeteID" style="ellipse;whiteSpace=wrap;html=1;align=center;fontStyle=4;" parent="1" vertex="1">
          <mxGeometry x="700" y="1706.7199999999998" width="100" height="40" as="geometry" />
        </mxCell>
        <mxCell id="lzxHL98yrn8-DKB0zWzx-438" value="TCNO" style="ellipse;whiteSpace=wrap;html=1;align=center;" parent="1" vertex="1">
          <mxGeometry x="1195" y="1084.5500000000004" width="100" height="40" as="geometry" />
        </mxCell>
        <mxCell id="lzxHL98yrn8-DKB0zWzx-439" value="&lt;div&gt;Var&lt;/div&gt;" style="shape=rhombus;perimeter=rhombusPerimeter;whiteSpace=wrap;html=1;align=center;rotation=0;" parent="1" vertex="1">
          <mxGeometry x="1190" y="1786.6399999999999" width="90" height="50" as="geometry" />
        </mxCell>
        <mxCell id="lzxHL98yrn8-DKB0zWzx-440" value="" style="shape=link;html=1;rounded=0;" parent="1" source="lzxHL98yrn8-DKB0zWzx-303" target="lzxHL98yrn8-DKB0zWzx-336" edge="1">
          <mxGeometry relative="1" as="geometry">
            <mxPoint x="1660" y="1456.3200000000002" as="sourcePoint" />
            <mxPoint x="1820" y="1456.3200000000002" as="targetPoint" />
          </mxGeometry>
        </mxCell>
        <mxCell id="lzxHL98yrn8-DKB0zWzx-441" value="(1, N)" style="edgeLabel;html=1;align=center;verticalAlign=middle;resizable=0;points=[];" parent="lzxHL98yrn8-DKB0zWzx-440" connectable="0" vertex="1">
          <mxGeometry x="0.0183" relative="1" as="geometry">
            <mxPoint x="182" y="-85" as="offset" />
          </mxGeometry>
        </mxCell>
        <mxCell id="lzxHL98yrn8-DKB0zWzx-442" value="İçerir" style="shape=rhombus;perimeter=rhombusPerimeter;whiteSpace=wrap;html=1;align=center;" parent="1" vertex="1">
          <mxGeometry x="790" y="1590" width="120" height="60" as="geometry" />
        </mxCell>
        <mxCell id="lzxHL98yrn8-DKB0zWzx-443" value="Miktar" style="ellipse;whiteSpace=wrap;html=1;align=center;" parent="1" vertex="1">
          <mxGeometry x="930" y="1425" width="100" height="40" as="geometry" />
        </mxCell>
        <mxCell id="lzxHL98yrn8-DKB0zWzx-444" value="" style="endArrow=none;html=1;rounded=0;entryX=0;entryY=0.5;entryDx=0;entryDy=0;exitX=1;exitY=0.5;exitDx=0;exitDy=0;" parent="1" source="lzxHL98yrn8-DKB0zWzx-301" target="lzxHL98yrn8-DKB0zWzx-443" edge="1">
          <mxGeometry relative="1" as="geometry">
            <mxPoint x="708" y="1426" as="sourcePoint" />
            <mxPoint x="760" y="1432" as="targetPoint" />
          </mxGeometry>
        </mxCell>
        <mxCell id="lzxHL98yrn8-DKB0zWzx-445" value="Tür" style="ellipse;whiteSpace=wrap;html=1;align=center;" parent="1" vertex="1">
          <mxGeometry x="1830" y="1869.9999999999995" width="100" height="40" as="geometry" />
        </mxCell>
        <mxCell id="lzxHL98yrn8-DKB0zWzx-446" value="" style="endArrow=none;html=1;rounded=0;entryX=1;entryY=1;entryDx=0;entryDy=0;" parent="1" source="lzxHL98yrn8-DKB0zWzx-445" target="lzxHL98yrn8-DKB0zWzx-304" edge="1">
          <mxGeometry relative="1" as="geometry">
            <mxPoint x="1915" y="1402.83" as="sourcePoint" />
            <mxPoint x="1725" y="1853" as="targetPoint" />
          </mxGeometry>
        </mxCell>
        <mxCell id="lzxHL98yrn8-DKB0zWzx-447" value="Uygundur" style="shape=rhombus;perimeter=rhombusPerimeter;whiteSpace=wrap;html=1;align=center;" parent="1" vertex="1">
          <mxGeometry x="1500" y="970" width="80" height="60" as="geometry" />
        </mxCell>
        <mxCell id="lzxHL98yrn8-DKB0zWzx-448" value="Saatler" style="whiteSpace=wrap;html=1;align=center;" parent="1" vertex="1">
          <mxGeometry x="1610" y="980" width="100" height="40" as="geometry" />
        </mxCell>
        <mxCell id="lzxHL98yrn8-DKB0zWzx-450" value="&lt;u&gt;SaatID&lt;/u&gt;" style="ellipse;whiteSpace=wrap;html=1;align=center;" parent="1" vertex="1">
          <mxGeometry x="1610" y="910" width="100" height="40" as="geometry" />
        </mxCell>
        <mxCell id="lzxHL98yrn8-DKB0zWzx-451" value="Saat" style="ellipse;whiteSpace=wrap;html=1;align=center;" parent="1" vertex="1">
          <mxGeometry x="1770" y="980" width="100" height="40" as="geometry" />
        </mxCell>
        <mxCell id="lzxHL98yrn8-DKB0zWzx-452" value="Gün" style="ellipse;whiteSpace=wrap;html=1;align=center;" parent="1" vertex="1">
          <mxGeometry x="1730" y="930" width="100" height="40" as="geometry" />
        </mxCell>
        <mxCell id="lzxHL98yrn8-DKB0zWzx-453" value="Dakika" style="ellipse;whiteSpace=wrap;html=1;align=center;" parent="1" vertex="1">
          <mxGeometry x="1730" y="1030" width="100" height="40" as="geometry" />
        </mxCell>
        <mxCell id="lzxHL98yrn8-DKB0zWzx-454" value="M" style="endArrow=none;html=1;rounded=0;exitX=1;exitY=0.5;exitDx=0;exitDy=0;entryX=0;entryY=0.5;entryDx=0;entryDy=0;" parent="1" target="lzxHL98yrn8-DKB0zWzx-447" edge="1">
          <mxGeometry x="0.8125" y="16" relative="1" as="geometry">
            <mxPoint x="1406.41" y="1035" as="sourcePoint" />
            <mxPoint x="1479" y="1025" as="targetPoint" />
            <mxPoint as="offset" />
          </mxGeometry>
        </mxCell>
        <mxCell id="lzxHL98yrn8-DKB0zWzx-455" value="N" style="endArrow=none;html=1;rounded=0;exitX=1;exitY=0.5;exitDx=0;exitDy=0;entryX=0;entryY=0.5;entryDx=0;entryDy=0;" parent="1" source="lzxHL98yrn8-DKB0zWzx-447" target="lzxHL98yrn8-DKB0zWzx-448" edge="1">
          <mxGeometry x="-0.8072" y="12" relative="1" as="geometry">
            <mxPoint x="1470" y="980" as="sourcePoint" />
            <mxPoint x="1630" y="980" as="targetPoint" />
            <mxPoint as="offset" />
          </mxGeometry>
        </mxCell>
        <mxCell id="lzxHL98yrn8-DKB0zWzx-457" value="" style="endArrow=none;html=1;rounded=0;entryX=0;entryY=1;entryDx=0;entryDy=0;exitX=1;exitY=0;exitDx=0;exitDy=0;" parent="1" source="lzxHL98yrn8-DKB0zWzx-448" target="lzxHL98yrn8-DKB0zWzx-452" edge="1">
          <mxGeometry relative="1" as="geometry">
            <mxPoint x="1710" y="970" as="sourcePoint" />
            <mxPoint x="1780" y="990" as="targetPoint" />
          </mxGeometry>
        </mxCell>
        <mxCell id="lzxHL98yrn8-DKB0zWzx-458" value="" style="endArrow=none;html=1;rounded=0;entryX=0;entryY=0;entryDx=0;entryDy=0;exitX=1;exitY=1;exitDx=0;exitDy=0;" parent="1" source="lzxHL98yrn8-DKB0zWzx-448" target="lzxHL98yrn8-DKB0zWzx-453" edge="1">
          <mxGeometry relative="1" as="geometry">
            <mxPoint x="1810" y="1010" as="sourcePoint" />
            <mxPoint x="1780" y="990" as="targetPoint" />
          </mxGeometry>
        </mxCell>
        <mxCell id="lzxHL98yrn8-DKB0zWzx-459" value="" style="endArrow=none;html=1;rounded=0;entryX=0;entryY=0.5;entryDx=0;entryDy=0;exitX=1;exitY=0.5;exitDx=0;exitDy=0;" parent="1" source="lzxHL98yrn8-DKB0zWzx-448" target="lzxHL98yrn8-DKB0zWzx-451" edge="1">
          <mxGeometry relative="1" as="geometry">
            <mxPoint x="1620" y="990" as="sourcePoint" />
            <mxPoint x="1780" y="990" as="targetPoint" />
          </mxGeometry>
        </mxCell>
        <mxCell id="lzxHL98yrn8-DKB0zWzx-460" value="" style="endArrow=none;html=1;rounded=0;entryX=0.5;entryY=1;entryDx=0;entryDy=0;exitX=0.5;exitY=0;exitDx=0;exitDy=0;" parent="1" source="lzxHL98yrn8-DKB0zWzx-448" target="lzxHL98yrn8-DKB0zWzx-450" edge="1">
          <mxGeometry relative="1" as="geometry">
            <mxPoint x="1620" y="990" as="sourcePoint" />
            <mxPoint x="1780" y="990" as="targetPoint" />
          </mxGeometry>
        </mxCell>
        <mxCell id="uQbdPS9-1VhwLOvT5QKt-1" value="Cinsiyet" style="ellipse;whiteSpace=wrap;html=1;align=center;" parent="1" vertex="1">
          <mxGeometry x="1800" y="1769.9999999999995" width="100" height="40" as="geometry" />
        </mxCell>
        <mxCell id="uQbdPS9-1VhwLOvT5QKt-2" value="" style="endArrow=none;html=1;rounded=0;entryX=1;entryY=0.25;entryDx=0;entryDy=0;exitX=0;exitY=0.5;exitDx=0;exitDy=0;" parent="1" source="uQbdPS9-1VhwLOvT5QKt-1" edge="1">
          <mxGeometry relative="1" as="geometry">
            <mxPoint x="1804" y="1809.2399999999996" as="sourcePoint" />
            <mxPoint x="1715" y="1814.04" as="targetPoint" />
          </mxGeometry>
        </mxCell>
        <mxCell id="yLr-Nv9TnPsCwjGYyU6Z-1" value="Yetkinlik" style="ellipse;shape=doubleEllipse;margin=3;whiteSpace=wrap;html=1;align=center;" vertex="1" parent="1">
          <mxGeometry x="1130" y="1009.9999999999995" width="100" height="40" as="geometry" />
        </mxCell>
        <mxCell id="yLr-Nv9TnPsCwjGYyU6Z-2" value="" style="endArrow=none;html=1;rounded=0;exitX=0;exitY=0.5;exitDx=0;exitDy=0;entryX=1;entryY=0.5;entryDx=0;entryDy=0;" edge="1" parent="1" source="lzxHL98yrn8-DKB0zWzx-302" target="yLr-Nv9TnPsCwjGYyU6Z-1">
          <mxGeometry relative="1" as="geometry">
            <mxPoint x="1291" y="1027.5" as="sourcePoint" />
            <mxPoint x="1250" y="1050" as="targetPoint" />
          </mxGeometry>
        </mxCell>
      </root>
    </mxGraphModel>
  </diagram>
</mxfile>
